<?xml version="1.0" standalone="no"?>
<!DOCTYPE svg PUBLIC "-//W3C//DTD SVG 20010904//EN"
 "http://www.w3.org/TR/2001/REC-SVG-20010904/DTD/svg10.dtd">
<svg version="1.0" xmlns="http://www.w3.org/2000/svg"
 width="260.000000pt" height="260.000000pt" viewBox="0 0 260.000000 260.000000"
 preserveAspectRatio="xMidYMid meet">
<metadata>
Created by potrace 1.14, written by Peter Selinger 2001-2017
</metadata>
<g transform="translate(0.000000,260.000000) scale(0.100000,-0.100000)"
fill="#000000" stroke="none">
<path d="M0 1300 l0 -1300 1300 0 1300 0 0 1300 0 1300 -1300 0 -1300 0 0
-1300z m1230 1160 c250 -16 428 -63 590 -155 362 -205 539 -604 500 -1124 -25
-330 -122 -567 -304 -747 -131 -128 -275 -209 -471 -263 -182 -51 -311 -61
-747 -61 l-388 0 0 1173 c0 646 3 1177 7 1180 10 10 647 8 813 -3z"/>
<path d="M800 1290 l0 -852 248 4 c214 4 258 8 326 26 316 87 490 298 536 653
22 172 5 395 -41 544 -73 235 -221 378 -465 446 -70 20 -110 23 -341 27 l-263
4 0 -852z m807 394 l29 -6 -11 -101 -10 -102 -90 -1 c-114 -1 -177 -26 -239
-95 -76 -85 -79 -100 -84 -466 l-4 -323 -114 0 -114 0 0 540 0 541 93 -3 92
-3 14 -92 c8 -51 18 -93 22 -93 4 0 16 15 28 33 22 36 81 94 126 124 66 44
177 64 262 47z"/>
</g>
</svg>
